<svg width="36.001343" height="36.000000" viewBox="0 0 36.0013 36" fill="none" xmlns="http://www.w3.org/2000/svg" xmlns:xlink="http://www.w3.org/1999/xlink">
	<desc>
			Created with Pixso.
	</desc>
	<defs/>
	<path id="Vector" d="M18 12C18 18.17 14.5 23.26 10 23.92L10 33L26 33L26 24.04L21.27 24.04C20.53 24.04 19.82 23.79 19.24 23.34C18.66 22.88 18.25 22.24 18.08 21.52C17.91 20.8 17.99 20.05 18.3 19.38C18.61 18.72 19.14 18.17 19.8 17.84C19.51 16.86 19.6 15.81 20.04 14.89C20.49 13.97 21.26 13.25 22.21 12.87C22.05 12.15 22.04 11.41 22.21 10.69C22.37 9.97 22.69 9.29 23.15 8.72C23.61 8.14 24.2 7.67 24.86 7.35C25.53 7.03 26.26 6.86 27 6.86C27.73 6.86 28.46 7.03 29.13 7.35C29.79 7.67 30.38 8.14 30.84 8.72C31.3 9.29 31.62 9.97 31.78 10.69C31.95 11.41 31.94 12.15 31.78 12.87C32.73 13.25 33.5 13.97 33.95 14.89C34.4 15.81 34.48 16.86 34.19 17.84C34.85 18.17 35.38 18.72 35.69 19.38C36 20.05 36.08 20.8 35.91 21.52C35.74 22.24 35.33 22.88 34.75 23.34C34.17 23.79 33.46 24.04 32.72 24.04L28 24.04L28 33L34.5 33C34.89 33 35.27 33.15 35.56 33.43C35.84 33.72 36 34.1 36 34.5C36 34.89 35.84 35.27 35.56 35.56C35.27 35.84 34.89 36 34.5 36L1.5 36C1.1 36 0.72 35.84 0.43 35.56C0.15 35.27 0 34.89 0 34.5C0 34.1 0.15 33.72 0.43 33.43C0.72 33.15 1.1 33 1.5 33L8 33L8 23.92C3.5 23.26 0 18.17 0 12C0 5.37 4.03 0 9 0C13.97 0 18 5.37 18 12Z" fill="#121214" fill-opacity="1.000000" fill-rule="evenodd"/>
</svg>
