<svg width="39.866943" height="32.067230" viewBox="0 0 39.8669 32.0672" fill="none" xmlns="http://www.w3.org/2000/svg" xmlns:xlink="http://www.w3.org/1999/xlink">
	<desc>
			Created with Pixso.
	</desc>
	<defs/>
	<path id="Vector" d="M0.06 14.46C-0.34 19.26 1.06 23.26 4.06 26.86C7.06 30.46 11.06 32.06 15.86 32.06L35.86 32.06C36.86 32.06 37.86 31.66 38.66 30.86C39.46 30.06 39.86 29.06 39.86 28.06L39.86 26.46C39.86 25.26 39.66 23.86 39.46 22.06L23.06 22.06C21.06 22.06 19.46 21.26 18.06 19.86C16.66 18.46 15.86 16.66 15.86 14.86C15.86 11.66 17.26 9.46 20.26 8.26L29.86 4.06C26.46 1.66 22.46 0.26 17.86 0.06C13.46 -0.34 9.46 1.06 5.86 3.86C2.26 6.66 0.46 10.06 0.06 14.46ZM19.86 14.86C19.86 15.66 20.26 16.46 20.86 17.06C21.46 17.66 22.26 18.06 23.06 18.06L38.66 18.06C37.46 13.66 35.66 10.06 33.06 7.26L21.86 11.86C20.46 12.26 19.86 13.26 19.86 14.86Z" fill="#121214" fill-opacity="1.000000" fill-rule="nonzero"/>
</svg>
