<svg width="14.000885" height="9.001266" viewBox="0 0 14.0009 9.00127" fill="none" xmlns="http://www.w3.org/2000/svg" xmlns:xlink="http://www.w3.org/1999/xlink">
	<desc>
			Created with Pixso.
	</desc>
	<defs/>
	<path id="Vector" d="M0 4.5C0 4.36 0.05 4.24 0.14 4.14C0.24 4.05 0.36 4 0.5 4L12.29 4L9.14 0.85C9.05 0.76 8.99 0.63 8.99 0.5C8.99 0.36 9.05 0.24 9.14 0.14C9.23 0.05 9.36 0 9.5 0C9.63 0 9.76 0.05 9.85 0.14L13.85 4.14C13.9 4.19 13.93 4.24 13.96 4.3C13.98 4.36 14 4.43 14 4.5C14 4.56 13.98 4.63 13.96 4.69C13.93 4.75 13.9 4.8 13.85 4.85L9.85 8.85C9.76 8.94 9.63 9 9.5 9C9.36 9 9.23 8.94 9.14 8.85C9.05 8.76 8.99 8.63 8.99 8.5C8.99 8.36 9.05 8.24 9.14 8.14L12.29 5L0.5 5C0.36 5 0.24 4.94 0.14 4.85C0.05 4.76 0 4.63 0 4.5Z" fill="#037E8C" fill-opacity="1.000000" fill-rule="evenodd"/>
</svg>
