<svg width="13.000000" height="13.000000" viewBox="0 0 13 13" fill="none" xmlns="http://www.w3.org/2000/svg" xmlns:xlink="http://www.w3.org/1999/xlink">
	<desc>
			Created with Pixso.
	</desc>
	<defs/>
	<path id="Vector" d="M13 6.5C13 8.22 12.31 9.87 11.09 11.09C9.87 12.31 8.22 13 6.5 13C4.77 13 3.12 12.31 1.9 11.09C0.68 9.87 0 8.22 0 6.5C0 4.77 0.68 3.12 1.9 1.9C3.12 0.68 4.77 0 6.5 0C8.22 0 9.87 0.68 11.09 1.9C12.31 3.12 13 4.77 13 6.5ZM6.5 2.84C6.5 2.73 6.45 2.63 6.38 2.55C6.3 2.48 6.2 2.43 6.09 2.43C5.98 2.43 5.88 2.48 5.8 2.55C5.73 2.63 5.68 2.73 5.68 2.84L5.68 7.31C5.68 7.38 5.7 7.45 5.74 7.51C5.77 7.57 5.83 7.62 5.89 7.66L8.73 9.29C8.82 9.34 8.93 9.35 9.04 9.32C9.14 9.29 9.22 9.22 9.28 9.13C9.33 9.04 9.34 8.93 9.32 8.83C9.29 8.72 9.22 8.63 9.13 8.58L6.5 7.07L6.5 2.84Z" fill="#037E8C" fill-opacity="1.000000" fill-rule="nonzero"/>
</svg>
