<svg width="19.953369" height="19.951996" viewBox="0 0 19.9534 19.952" fill="none" xmlns="http://www.w3.org/2000/svg" xmlns:xlink="http://www.w3.org/1999/xlink">
	<desc>
			Created with Pixso.
	</desc>
	<defs/>
	<path id="Vector" d="M2.29 0.37C2.04 0.13 1.7 -0.01 1.35 6.1e-5C1 0 0.67 0.14 0.42 0.39C0.17 0.63 0.03 0.97 0.03 1.32C0.03 1.67 0.16 2 0.4 2.25L8.1 9.95L0.4 17.65C0.27 17.78 0.17 17.92 0.1 18.09C0.03 18.25 0 18.43 0 18.6C-0.01 18.78 0.03 18.95 0.09 19.12C0.16 19.28 0.26 19.43 0.39 19.56C0.51 19.68 0.66 19.78 0.82 19.85C0.99 19.91 1.16 19.95 1.34 19.95C1.52 19.95 1.69 19.91 1.85 19.84C2.02 19.77 2.16 19.67 2.29 19.54L9.99 11.84L17.69 19.54C17.94 19.78 18.28 19.92 18.63 19.91C18.98 19.91 19.31 19.77 19.56 19.52C19.81 19.28 19.95 18.94 19.95 18.59C19.95 18.24 19.82 17.91 19.57 17.65L11.87 9.95L19.57 2.25C19.82 2 19.95 1.67 19.95 1.32C19.95 0.97 19.81 0.63 19.56 0.39C19.31 0.14 18.98 0 18.63 6.1e-5C18.28 -0.01 17.94 0.13 17.69 0.37L9.99 8.07L2.29 0.37L2.29 0.37Z" fill="#121214" fill-opacity="1.000000" fill-rule="nonzero"/>
</svg>
