<svg width="86.166656" height="70.500000" viewBox="0 0 86.1667 70.5" fill="none" xmlns="http://www.w3.org/2000/svg" xmlns:xlink="http://www.w3.org/1999/xlink">
	<desc>
			Created with Pixso.
	</desc>
	<defs/>
	<path id="Vector" d="M7.83 35.25C3.52 35.25 0 31.72 0 27.41L0 7.83C0 3.52 3.52 0 7.83 0L39.16 0C43.47 0 47 3.52 47 7.83L47 27.41C47 31.72 43.47 35.25 39.16 35.25L31.33 35.25L31.33 47L19.58 35.25L7.83 35.25ZM78.33 58.75C82.64 58.75 86.16 55.22 86.16 50.91L86.16 31.33C86.16 27.02 82.64 23.5 78.33 23.5L54.83 23.5L54.83 27.41C54.83 36.03 47.78 43.08 39.16 43.08L39.16 50.91C39.16 55.22 42.69 58.75 47 58.75L54.83 58.75L54.83 70.5L66.58 58.75L78.33 58.75Z" fill="#121214" fill-opacity="1.000000" fill-rule="nonzero"/>
</svg>
