<svg width="22.997742" height="23.000000" viewBox="0 0 22.9977 23" fill="none" xmlns="http://www.w3.org/2000/svg" xmlns:xlink="http://www.w3.org/1999/xlink">
	<desc>
			Created with Pixso.
	</desc>
	<defs/>
	<path id="Vector" d="M22.38 10C22.37 10 22.37 10 22.37 10L12.99 0.62C12.59 0.22 12.06 0 11.49 0C10.93 0 10.4 0.22 10 0.62L0.62 9.99C0.62 10 0.61 10 0.61 10C-0.21 10.83 -0.21 12.17 0.61 12.99C0.99 13.37 1.49 13.59 2.02 13.61C2.04 13.61 2.06 13.61 2.08 13.61L2.46 13.61L2.46 20.52C2.46 21.88 3.57 23 4.94 23L8.61 23C8.98 23 9.28 22.69 9.28 22.32L9.28 16.91C9.28 16.28 9.79 15.78 10.41 15.78L12.58 15.78C13.2 15.78 13.71 16.28 13.71 16.91L13.71 22.32C13.71 22.69 14.01 23 14.38 23L18.05 23C19.42 23 20.53 21.88 20.53 20.52L20.53 13.61L20.88 13.61C21.44 13.61 21.97 13.39 22.37 12.99C23.2 12.17 23.2 10.82 22.38 10ZM21.42 12.04C21.28 12.18 21.08 12.27 20.88 12.27L19.86 12.27C19.48 12.27 19.18 12.57 19.18 12.94L19.18 20.52C19.18 21.14 18.68 21.65 18.05 21.65L15.05 21.65L15.05 16.91C15.05 15.54 13.94 14.43 12.58 14.43L10.41 14.43C9.04 14.43 7.93 15.54 7.93 16.91L7.93 21.65L4.94 21.65C4.31 21.65 3.81 21.14 3.81 20.52L3.81 12.94C3.81 12.57 3.5 12.27 3.13 12.27L2.13 12.27C2.12 12.26 2.11 12.26 2.1 12.26C1.9 12.26 1.71 12.18 1.57 12.04C1.27 11.74 1.27 11.25 1.57 10.95C1.57 10.95 1.57 10.95 1.57 10.95L1.57 10.95L10.95 1.57C11.1 1.42 11.29 1.34 11.49 1.34C11.7 1.34 11.89 1.42 12.04 1.57L21.42 10.95C21.42 10.95 21.42 10.95 21.42 10.95C21.72 11.25 21.72 11.74 21.42 12.04Z" fill="#FFFFFF" fill-opacity="1.000000" fill-rule="nonzero"/>
</svg>
