<svg width="28.875000" height="28.875000" viewBox="0 0 28.875 28.875" fill="none" xmlns="http://www.w3.org/2000/svg" xmlns:xlink="http://www.w3.org/1999/xlink">
	<desc>
			Created with Pixso.
	</desc>
	<defs/>
	<path id="Vector" d="M14.43 0C6.46 0 0 6.46 0 14.43C0 22.41 6.46 28.87 14.43 28.87C22.41 28.87 28.87 22.41 28.87 14.43C28.87 6.46 22.41 0 14.43 0ZM15.46 21.39C15.46 21.54 15.35 21.65 15.21 21.65L13.66 21.65C13.52 21.65 13.4 21.54 13.4 21.39L13.4 12.63C13.4 12.49 13.52 12.37 13.66 12.37L15.21 12.37C15.35 12.37 15.46 12.49 15.46 12.63L15.46 21.39ZM14.43 10.31C14.03 10.3 13.64 10.13 13.36 9.84C13.08 9.55 12.92 9.17 12.92 8.76C12.92 8.36 13.08 7.97 13.36 7.68C13.64 7.39 14.03 7.22 14.43 7.21C14.84 7.22 15.22 7.39 15.51 7.68C15.79 7.97 15.95 8.36 15.95 8.76C15.95 9.17 15.79 9.55 15.51 9.84C15.22 10.13 14.84 10.3 14.43 10.31Z" fill="#FFFFFF" fill-opacity="1.000000" fill-rule="nonzero"/>
</svg>
