<svg width="25.000000" height="19.042969" viewBox="0 0 25 19.043" fill="none" xmlns="http://www.w3.org/2000/svg" xmlns:xlink="http://www.w3.org/1999/xlink">
	<desc>
			Created with Pixso.
	</desc>
	<defs/>
	<path id="Vector" d="M22.8 0L2.19 0C0.98 0 0 0.98 0 2.19L0 16.84C0 18.05 0.98 19.04 2.19 19.04L22.8 19.04C24 19.04 25 18.06 25 16.84L25 2.19C25 0.99 24.01 0 22.8 0ZM22.49 1.46L12.54 11.41L2.5 1.46L22.49 1.46ZM1.46 16.54L1.46 2.49L8.51 9.48L1.46 16.54ZM2.5 17.57L9.55 10.51L12.03 12.97C12.31 13.25 12.78 13.25 13.06 12.96L15.47 10.55L22.49 17.57L2.5 17.57ZM23.53 16.54L16.51 9.52L23.53 2.5L23.53 16.54Z" fill="#FFFFFF" fill-opacity="1.000000" fill-rule="nonzero"/>
</svg>
