<svg width="16.081665" height="15.748535" viewBox="0 0 16.0817 15.7485" fill="none" xmlns="http://www.w3.org/2000/svg" xmlns:xlink="http://www.w3.org/1999/xlink">
	<desc>
			Created with Pixso.
	</desc>
	<defs/>
	<path id="Vector" d="M6.68 9.19C7.67 10.19 8.86 10.96 10.17 11.45L11.95 10.04C12.01 10 12.07 9.98 12.13 9.98C12.2 9.98 12.26 10 12.31 10.04L15.62 12.17C15.74 12.24 15.85 12.35 15.93 12.47C16.01 12.59 16.06 12.73 16.07 12.88C16.09 13.02 16.07 13.17 16.02 13.31C15.96 13.45 15.88 13.57 15.77 13.67L14.23 15.2C14 15.42 13.73 15.58 13.43 15.67C13.13 15.75 12.82 15.77 12.51 15.7C9.47 15.07 6.66 13.6 4.41 11.45C2.22 9.28 0.69 6.52 0.04 3.51C-0.03 3.21 -0.02 2.89 0.07 2.6C0.17 2.31 0.33 2.04 0.55 1.83L2.16 0.28C2.26 0.18 2.38 0.1 2.51 0.05C2.65 0 2.79 -0.01 2.93 0C3.08 0.01 3.21 0.06 3.33 0.14C3.45 0.21 3.56 0.31 3.63 0.43L5.83 3.69C5.87 3.75 5.89 3.81 5.89 3.87C5.89 3.94 5.87 4 5.83 4.05L4.38 5.79C4.89 7.08 5.67 8.24 6.68 9.19Z" fill="#FFFFFF" fill-opacity="1.000000" fill-rule="nonzero"/>
</svg>
