<svg width="22.999878" height="23.000000" viewBox="0 0 22.9999 23" fill="none" xmlns="http://www.w3.org/2000/svg" xmlns:xlink="http://www.w3.org/1999/xlink">
	<desc>
			Created with Pixso.
	</desc>
	<defs/>
	<path id="Vector" d="M16.53 23C15.78 23 15.05 22.86 14.33 22.6C11.16 21.45 8.21 19.57 5.81 17.18C3.42 14.78 1.54 11.83 0.39 8.66C0.02 7.64 -0.09 6.59 0.06 5.54C0.21 4.55 0.59 3.59 1.17 2.76C1.75 1.93 2.53 1.24 3.42 0.76C4.36 0.25 5.39 0 6.48 0C6.82 0 7.11 0.23 7.19 0.56L8.31 5.83C8.36 6.07 8.29 6.31 8.12 6.49L6.19 8.41C8.01 12.03 10.96 14.98 14.58 16.8L16.5 14.87C16.68 14.7 16.92 14.63 17.16 14.68L22.43 15.8C22.76 15.88 22.99 16.17 22.99 16.51C22.99 17.6 22.74 18.63 22.23 19.57C21.75 20.46 21.06 21.24 20.23 21.82C19.4 22.4 18.44 22.78 17.45 22.93C17.14 22.97 16.83 23 16.53 23ZM5.91 1.46C4.47 1.62 3.2 2.38 2.35 3.58C1.4 4.94 1.17 6.62 1.74 8.17C3.95 14.27 8.72 19.04 14.82 21.25C16.37 21.82 18.05 21.59 19.41 20.64C20.61 19.79 21.37 18.52 21.53 17.08L17.24 16.16L15.23 18.18C15.02 18.39 14.69 18.45 14.42 18.32C10.14 16.31 6.68 12.85 4.67 8.57C4.54 8.3 4.6 7.97 4.81 7.76L6.83 5.75L5.91 1.46Z" fill="#FFFFFF" fill-opacity="1.000000" fill-rule="nonzero"/>
</svg>
