<svg width="13.000000" height="15.750000" viewBox="0 0 13 15.75" fill="none" xmlns="http://www.w3.org/2000/svg" xmlns:xlink="http://www.w3.org/1999/xlink">
	<defs/>
	<path d="M8.1 10.12C10.98 10.12 13 8.03 13 5.02C13 2.02 10.98 0 8.1 0L2.57 0C2.34 0 2.16 0.18 2.16 0.42L2.16 7.68L0.4 7.68C0.18 7.68 0 7.87 0 8.1L0 9.7C0 9.93 0.18 10.12 0.4 10.12L2.16 10.12L2.16 11.25L0.4 11.25C0.18 11.25 0 11.43 0 11.67L0 13.07C0 13.31 0.18 13.5 0.4 13.5L2.16 13.5L2.16 15.32C2.16 15.56 2.34 15.75 2.57 15.75L4.55 15.75C4.77 15.75 4.96 15.56 4.96 15.32L4.96 13.5L10.42 13.5C10.65 13.5 10.83 13.31 10.83 13.07L10.83 11.67C10.83 11.43 10.65 11.25 10.42 11.25L4.96 11.25L4.96 10.12L8.1 10.12ZM4.96 2.41L7.62 2.41C9.2 2.41 10.16 3.44 10.16 5.02C10.16 6.64 9.2 7.68 7.58 7.68L4.96 7.68L4.96 2.41Z" fill="#121214" fill-opacity="1.000000" fill-rule="nonzero"/>
</svg>
