<svg width="14.060730" height="13.427307" viewBox="0 0 14.0607 13.4273" fill="none" xmlns="http://www.w3.org/2000/svg" xmlns:xlink="http://www.w3.org/1999/xlink">
	<desc>
			Created with Pixso.
	</desc>
	<defs/>
	<path id="Vector" d="M13.6 4.72L9.39 4.11L7.5 0.29C7.45 0.19 7.37 0.1 7.26 0.05C7 -0.08 6.68 0.03 6.55 0.29L4.66 4.11L0.45 4.72C0.33 4.74 0.23 4.79 0.15 4.88C0.05 4.98 -0.01 5.11 6.1e-5 5.26C0 5.4 0.05 5.53 0.16 5.63L3.21 8.6L2.48 12.8C2.47 12.9 2.48 13 2.52 13.09C2.55 13.18 2.62 13.26 2.7 13.32C2.78 13.38 2.87 13.41 2.97 13.42C3.07 13.43 3.17 13.41 3.26 13.36L7.03 11.38L10.8 13.36C10.9 13.42 11.02 13.43 11.13 13.41C11.42 13.36 11.62 13.09 11.57 12.8L10.85 8.6L13.9 5.63C13.98 5.55 14.03 5.44 14.05 5.33C14.09 5.04 13.89 4.77 13.6 4.72Z" fill="#037E8C" fill-opacity="1.000000" fill-rule="nonzero"/>
</svg>
