<svg width="506.714905" height="432.563477" viewBox="0 0 506.715 432.563" fill="none" xmlns="http://www.w3.org/2000/svg" xmlns:xlink="http://www.w3.org/1999/xlink">
	<desc>
			Created with Pixso.
	</desc>
	<defs/>
	<path id="Vector" d="M214.26 378.38C192.46 364.08 173.09 348.24 154.68 329.77C136.87 311.89 125.63 289.86 108.03 271.78C73.19 235.96 -6.37 220.75 0.4 171.18C6.83 124.14 84.91 133.66 129.21 116.77C155.17 106.87 184.29 107.73 207.37 92.24C244.25 67.48 258.54 -10.02 301.52 1.07C345.12 12.33 306.97 100.66 343.28 127.33C387.85 160.07 486.44 98.03 504.69 150.3C522.53 201.39 416.82 214.24 390.06 261.29C373.91 289.68 400.55 327.93 386.81 357.57C371.62 390.35 346.66 427.87 310.85 432.19C273.62 436.68 245.62 398.94 214.26 378.38Z" fill="#373737" fill-opacity="1.000000" fill-rule="evenodd"/>
</svg>
