<?xml version="1.0" standalone="no"?>
<!DOCTYPE svg PUBLIC "-//W3C//DTD SVG 20010904//EN"
 "http://www.w3.org/TR/2001/REC-SVG-20010904/DTD/svg10.dtd">
<svg version="1.0" xmlns="http://www.w3.org/2000/svg"
 width="142.000000pt" height="142.000000pt" viewBox="0 0 142.000000 142.000000"
 preserveAspectRatio="xMidYMid meet">
<metadata>
Created by potrace 1.14, written by Peter Selinger 2001-2017
</metadata>
<g transform="translate(0.000000,142.000000) scale(0.100000,-0.100000)"
fill="#000000" stroke="none">
<path d="M615 1364 c-49 -29 -101 -60 -115 -67 -14 -8 -54 -31 -90 -52 -36
-21 -78 -45 -95 -55 -34 -19 -35 -22 -36 -250 -1 -152 0 -150 -23 -150 -19 -1
-19 -2 4 -15 l25 -14 -30 -1 -30 -1 25 -14 c15 -9 19 -14 10 -15 -13 0 -13 -1
0 -10 13 -9 13 -10 0 -11 -8 -1 -23 -1 -32 0 -13 2 -18 -5 -18 -21 0 -18 2
-20 10 -8 7 11 10 12 10 2 0 -9 7 -11 23 -7 l22 6 -24 -20 c-12 -12 -28 -18
-34 -14 -5 3 -7 1 -4 -4 4 -6 -4 -14 -18 -17 -21 -5 -23 -9 -13 -20 10 -11 16
-11 27 -2 12 9 14 8 8 -6 -8 -22 6 -23 27 -2 13 13 16 13 16 1 0 -13 -76 -55
-91 -50 -8 3 -6 -14 6 -39 4 -10 12 -15 18 -11 6 3 7 1 3 -5 -4 -7 -13 -12
-21 -12 -10 0 -13 -23 -12 -105 l1 -105 102 0 102 0 -1 -43 c0 -45 9 -60 70
-121 28 -28 38 -31 80 -30 49 2 61 -2 145 -50 41 -23 51 -25 70 -14 13 7 25
15 28 18 24 24 83 44 137 47 59 2 66 5 96 39 52 59 58 72 59 114 l0 40 102 0
102 0 -1 103 c-1 56 3 105 8 108 5 4 -5 15 -22 25 -34 20 -54 52 -22 35 18
-10 31 -6 31 11 0 4 -6 8 -13 8 -7 0 -22 7 -33 15 -14 11 -15 15 -4 14 36 -3
43 4 15 16 -23 11 -26 14 -10 15 15 0 17 2 6 9 -7 5 -11 13 -8 17 3 5 -1 14
-8 21 -10 10 -16 9 -27 -4 -7 -9 -8 -14 -2 -10 6 4 10 -3 9 -16 -1 -12 -8 -23
-16 -25 -12 -2 -14 40 -14 277 l0 280 -125 72 c-69 39 -137 80 -152 90 -15 11
-29 19 -32 19 -3 0 -32 16 -65 35 -32 19 -61 35 -63 34 -2 -1 -43 -25 -93 -55z
m550 -784 c-3 -5 -11 -10 -16 -10 -6 0 -7 5 -4 10 3 6 11 10 16 10 6 0 7 -4 4
-10z"/>
</g>
</svg>
